<svg width="140" height="140" viewBox="0 0 140 140" fill="none" xmlns="http://www.w3.org/2000/svg">
<path d="M48.2592 42.2742V91.4084L35.9917 91.3909V60.9642L24.15 74.9875L12.5475 60.6492L12.4308 91.4784H0.00583333L0 42.2742H12.8508L23.73 57.12L35.4842 42.2684L48.2592 42.2742V42.2742ZM98.5892 54.3434L98.735 91.2975H84.9392L84.8925 74.55H68.5592C68.9675 77.4609 69.7842 81.935 70.9917 84.9275C71.8958 87.15 72.73 89.3084 74.3925 91.5075L64.4467 98.07C62.4108 94.36 60.8183 90.2709 59.325 85.925C57.8311 81.8226 56.838 77.5547 56.3675 73.2142C55.8717 68.8392 55.8017 64.6334 56.9917 60.3109C58.1615 56.1094 60.5119 52.3317 63.7642 49.4259C65.59 47.7167 68.1333 46.5092 70.1808 45.4184C72.2283 44.3275 74.515 43.8784 76.6383 43.3242C78.9213 42.7802 81.2449 42.4232 83.5858 42.2567C85.9075 42.0584 90.0433 41.8717 97.5275 42.0934L100.707 52.2959H84.6417C81.1825 52.3425 79.52 52.3017 76.8192 53.515C74.6761 54.5282 72.8496 56.1063 71.5361 58.0796C70.2226 60.053 69.4717 62.347 69.3642 64.715L84.8983 64.9075L85.12 54.3492H98.5892V54.3434ZM121.876 42.0992V80.7567L140 80.9434L137.492 91.2975H109.451V41.9242L121.876 42.0992V42.0992Z" fill="#6320EE"/>
</svg>
