<svg width="140" height="140" viewBox="0 0 140 140" fill="none" xmlns="http://www.w3.org/2000/svg">
<path d="M0 26.25C0 21.6087 1.84375 17.1575 5.12563 13.8756C8.40752 10.5937 12.8587 8.75 17.5 8.75H122.5C127.141 8.75 131.592 10.5937 134.874 13.8756C138.156 17.1575 140 21.6087 140 26.25V113.75C140 118.391 138.156 122.842 134.874 126.124C131.592 129.406 127.141 131.25 122.5 131.25H17.5C12.8587 131.25 8.40752 129.406 5.12563 126.124C1.84375 122.842 0 118.391 0 113.75V26.25ZM83.125 74.375H56.875C55.7147 74.375 54.6019 74.8359 53.7814 75.6564C52.9609 76.4769 52.5 77.5897 52.5 78.75C52.5 79.9103 52.9609 81.0231 53.7814 81.8436C54.6019 82.6641 55.7147 83.125 56.875 83.125H83.125C84.2853 83.125 85.3981 82.6641 86.2186 81.8436C87.0391 81.0231 87.5 79.9103 87.5 78.75C87.5 77.5897 87.0391 76.4769 86.2186 75.6564C85.3981 74.8359 84.2853 74.375 83.125 74.375ZM27.5275 71.2775C27.1207 71.6843 26.7981 72.1672 26.5779 72.6986C26.3578 73.2301 26.2445 73.7997 26.2445 74.375C26.2445 74.9503 26.3578 75.5199 26.5779 76.0514C26.7981 76.5828 27.1207 77.0657 27.5275 77.4725C28.349 78.294 29.4632 78.7555 30.625 78.7555C31.2003 78.7555 31.7699 78.6422 32.3014 78.4221C32.8328 78.2019 33.3157 77.8793 33.7225 77.4725L51.2225 59.9725C51.6299 59.5661 51.9532 59.0833 52.1737 58.5518C52.3943 58.0203 52.5078 57.4505 52.5078 56.875C52.5078 56.2995 52.3943 55.7297 52.1737 55.1982C51.9532 54.6667 51.6299 54.1839 51.2225 53.7775L33.7225 36.2775C33.3157 35.8707 32.8328 35.5481 32.3014 35.3279C31.7699 35.1078 31.2003 34.9945 30.625 34.9945C30.0497 34.9945 29.4801 35.1078 28.9486 35.3279C28.4172 35.5481 27.9343 35.8707 27.5275 36.2775C27.1207 36.6843 26.7981 37.1672 26.5779 37.6986C26.3578 38.2301 26.2445 38.7997 26.2445 39.375C26.2445 39.9503 26.3578 40.5199 26.5779 41.0514C26.7981 41.5828 27.1207 42.0657 27.5275 42.4725L41.9388 56.875L27.5275 71.2775Z" fill="#6320EE"/>
</svg>
