<svg width="140" height="140" viewBox="0 0 140 140" fill="none" xmlns="http://www.w3.org/2000/svg">
<g clip-path="url(#clip0_26_8)">
<path d="M70 8.75C31.3141 8.75 7.26753e-10 40.0575 7.26753e-10 78.75V91.875C-2.09393e-05 93.5 0.452468 95.0929 1.30676 96.4752C2.16106 97.8575 3.3834 98.9746 4.83684 99.7013L8.76969 101.668C9.31957 118.098 22.8104 131.25 39.375 131.25H45.9375C49.5619 131.25 52.5 128.312 52.5 124.688V76.5625C52.5 72.9381 49.5619 70 45.9375 70H39.375C30.8049 70 23.0587 73.5216 17.5 79.1949V78.75C17.5 49.8014 41.0514 26.25 70 26.25C98.9486 26.25 122.5 49.8014 122.5 78.75V79.1949C116.941 73.5216 109.195 70 100.625 70H94.0625C90.4381 70 87.5 72.9381 87.5 76.5625V124.688C87.5 128.312 90.4381 131.25 94.0625 131.25H100.625C117.19 131.25 130.68 118.098 131.23 101.668L135.163 99.7013C136.616 98.9746 137.839 97.8575 138.693 96.4752C139.547 95.0929 140 93.5 140 91.875V78.75C140 40.0643 108.692 8.75 70 8.75Z" fill="#6320EE"/>
</g>
<defs>
<clipPath id="clip0_26_8">
<rect width="140" height="140" fill="white"/>
</clipPath>
</defs>
</svg>
