<svg width="140" height="140" viewBox="0 0 140 140" fill="none" xmlns="http://www.w3.org/2000/svg">
<path d="M132.106 67.096C126.306 40.8761 117.578 26.8816 104.631 23.0589C101.909 22.2606 99.0862 21.8618 96.25 21.8749C92.5012 21.8749 89.2363 22.7882 85.7828 23.7562C81.6211 24.9238 76.8933 26.2499 70 26.2499C63.1066 26.2499 58.3762 24.9265 54.2062 23.7589C50.75 22.7882 47.4879 21.8749 43.75 21.8749C40.8172 21.8648 37.8972 22.2623 35.0738 23.0562C22.1949 26.8624 13.4723 40.8515 7.58788 67.0796C1.26054 95.3039 4.37499 113.124 16.3215 117.258C17.959 117.835 19.682 118.133 21.4184 118.139C29.6023 118.139 36.1648 111.322 40.6492 105.741C45.716 99.4246 51.6469 96.2199 70 96.2199C86.3926 96.2199 93.1766 98.4429 99.0363 105.741C102.72 110.329 106.2 113.539 109.673 115.56C114.291 118.245 118.907 118.841 123.389 117.302C130.449 114.893 134.496 108.525 135.42 98.3691C136.123 90.5816 135.04 80.3523 132.106 67.096ZM56.875 65.625H48.125V74.375C48.125 75.5353 47.6641 76.6481 46.8436 77.4685C46.0231 78.289 44.9103 78.75 43.75 78.75C42.5897 78.75 41.4769 78.289 40.6564 77.4685C39.8359 76.6481 39.375 75.5353 39.375 74.375V65.625H30.625C29.4647 65.625 28.3519 65.164 27.5314 64.3435C26.7109 63.5231 26.25 62.4103 26.25 61.25C26.25 60.0896 26.7109 58.9768 27.5314 58.1564C28.3519 57.3359 29.4647 56.875 30.625 56.875H39.375V48.125C39.375 46.9646 39.8359 45.8518 40.6564 45.0314C41.4769 44.2109 42.5897 43.75 43.75 43.75C44.9103 43.75 46.0231 44.2109 46.8436 45.0314C47.6641 45.8518 48.125 46.9646 48.125 48.125V56.875H56.875C58.0353 56.875 59.1481 57.3359 59.9686 58.1564C60.7891 58.9768 61.25 60.0896 61.25 61.25C61.25 62.4103 60.7891 63.5231 59.9686 64.3435C59.1481 65.164 58.0353 65.625 56.875 65.625ZM79.8437 66.7187C78.7621 66.7187 77.7048 66.398 76.8055 65.7971C75.9061 65.1961 75.2052 64.342 74.7913 63.3428C74.3774 62.3435 74.2691 61.2439 74.4801 60.183C74.6911 59.1222 75.2119 58.1478 75.9768 57.383C76.7416 56.6181 77.716 56.0973 78.7768 55.8863C79.8377 55.6753 80.9373 55.7836 81.9365 56.1975C82.9358 56.6114 83.7899 57.3123 84.3908 58.2117C84.9918 59.111 85.3125 60.1683 85.3125 61.25C85.3125 62.7004 84.7363 64.0914 83.7107 65.1169C82.6851 66.1425 81.2941 66.7187 79.8437 66.7187V66.7187ZM91.875 78.75C90.7928 78.7499 89.7349 78.4289 88.8353 77.8273C87.9357 77.2258 87.2347 76.3709 86.8212 75.3708C86.4077 74.3708 86.3002 73.2705 86.5123 72.2093C86.7245 71.1481 87.2467 70.1736 88.0129 69.4094C88.7791 68.6451 89.7548 68.1253 90.8165 67.9159C91.8782 67.7064 92.9782 67.8167 93.9773 68.2327C94.9763 68.6487 95.8295 69.3518 96.4287 70.2529C97.028 71.154 97.3465 72.2127 97.3437 73.2949C97.3401 74.7429 96.7624 76.1304 95.7372 77.153C94.712 78.1757 93.323 78.75 91.875 78.75V78.75ZM91.875 54.6875C90.7934 54.6875 89.736 54.3667 88.8367 53.7658C87.9374 53.1649 87.2364 52.3108 86.8225 51.3115C86.4086 50.3122 86.3003 49.2126 86.5113 48.1518C86.7223 47.091 87.2432 46.1165 88.008 45.3517C88.7728 44.5869 89.7473 44.066 90.8081 43.855C91.8689 43.644 92.9685 43.7523 93.9678 44.1662C94.9671 44.5802 95.8212 45.2811 96.4221 46.1804C97.023 47.0798 97.3437 48.1371 97.3437 49.2187C97.3437 50.6691 96.7676 52.0601 95.742 53.0857C94.7164 54.1113 93.3254 54.6875 91.875 54.6875ZM103.906 66.7187C102.825 66.7187 101.767 66.398 100.868 65.7971C99.9686 65.1961 99.2677 64.342 98.8538 63.3428C98.4399 62.3435 98.3316 61.2439 98.5426 60.183C98.7536 59.1222 99.2744 58.1478 100.039 57.383C100.804 56.6181 101.779 56.0973 102.839 55.8863C103.9 55.6753 105 55.7836 105.999 56.1975C106.998 56.6114 107.852 57.3123 108.453 58.2117C109.054 59.111 109.375 60.1683 109.375 61.25C109.375 62.7004 108.799 64.0914 107.773 65.1169C106.748 66.1425 105.357 66.7187 103.906 66.7187V66.7187Z" fill="#fff"/>
</svg>
