<svg width="832" height="591" viewBox="0 0 832 591" fill="none" xmlns="http://www.w3.org/2000/svg">
<path d="M164.335 0H668.332V370.293H164.335V0Z" fill="#EEEEFF"/>
<path d="M206.931 35.9862H638.928V350.031H206.931V35.9862Z" fill="#36363F"/>
<path d="M406.086 124.567H237.607V141.856H406.086V124.567Z" fill="#EEEEFF"/>
<path d="M332.731 161.371H237.692V177.22H332.731V161.371Z" fill="#06D6A0"/>
<path d="M311.406 201.896H237.966V217.745H311.406V201.896Z" fill="#06D6A0"/>
<path d="M332.731 285.281H237.692V301.13H332.731V285.281Z" fill="#06D6A0"/>
<path d="M355.771 223.326H237.692V239.175H355.771V223.326Z" fill="#EEEEFF"/>
<path d="M478.17 73.4816H237.692V96.5345H478.17V73.4816Z" fill="#06D6A0"/>
<path d="M667.998 373.067H163.668L327.67 591H832L667.998 373.067Z" fill="#EEEEFF"/>
<path d="M668.332 373.067H164.002L9.76211e-05 591H504.33L668.332 373.067Z" fill="#ECEEFF"/>
<path d="M668.331 370.293H163.668V373.067H668.331V370.293Z" fill="#363636"/>
<path d="M465.016 125.124L470.465 186.803L495.301 193.858L520.037 186.803L525.594 125.124H465.016ZM514.142 139.755L513.746 143.654L513.606 145.265L484.592 145.265L485.269 153.047H512.937L512.665 155.055L510.914 175.064L510.774 176.402L495.334 180.665L495.334 180.692L495.235 180.693L495.208 180.704V180.693H495.197L479.625 176.397L478.684 164.451H486.206L486.742 170.498L495.197 172.787L495.23 172.786L503.651 170.506L504.593 160.708H495.205L495.205 160.697H478.287L476.405 139.755L476.264 137.748H514.269L514.142 139.755Z" fill="#06D6A0"/>
<path d="M555.999 160.364H608.102L603.363 213.895L581.993 219.945L560.742 213.892L555.999 160.364ZM598.401 171.319L565.7 171.308L566.229 177.817L591.35 177.822L590.717 184.564H574.242L574.838 190.952H590.176L589.268 199.698L582.048 201.694L574.714 199.683L574.248 194.445H567.773L568.492 204.015L582.051 208.243L595.382 204.445L598.402 171.318L598.401 171.319Z" fill="#EEEEFF"/>
<path d="M481.847 224.305V286.276H543.782V224.305H481.847ZM515.552 272.637C515.552 278.668 512.013 281.421 506.856 281.421C502.197 281.421 499.501 279.014 498.119 276.095L502.861 273.232C503.773 274.85 504.603 276.219 506.607 276.219C508.515 276.219 509.732 275.473 509.732 272.554V252.759H515.552V272.637ZM529.321 281.421C523.916 281.421 520.418 278.848 518.718 275.473L523.46 272.734C524.704 274.767 526.335 276.275 529.197 276.275C531.603 276.275 533.151 275.071 533.151 273.398C533.151 271.406 531.575 270.7 528.907 269.524L527.455 268.902C523.252 267.118 520.474 264.863 520.474 260.118C520.474 255.747 523.805 252.427 528.99 252.427C532.695 252.427 535.349 253.714 537.257 257.089L532.722 259.994C531.727 258.209 530.649 257.504 528.976 257.504C527.275 257.504 526.197 258.583 526.197 259.994C526.197 261.737 527.275 262.442 529.778 263.535L531.229 264.157C536.179 266.274 538.957 268.445 538.957 273.315C538.957 278.543 534.838 281.421 529.321 281.421V281.421Z" fill="#06D6A0"/>
<path d="M178.385 392H379V549H63.5L178.385 392Z" fill="#53535B"/>
<path d="M453 392H653.615L763.615 549H453V392Z" fill="#53535B"/>
<rect x="276" y="392" width="230" height="157" fill="#53535B"/>
</svg>
